<svg id="visual" viewBox="0 0 540 960" width="540" height="960" xmlns="http://www.w3.org/2000/svg" xmlns:xlink="http://www.w3.org/1999/xlink" version="1.1"><rect x="0" y="0" width="540" height="960" fill="#1a1c1f"></rect><g transform="translate(252.74707918278864 457.2042152125214)"><path d="M208.1 -339.5C268.9 -325.4 316.7 -267.9 345.1 -204.1C373.4 -140.3 382.2 -70.2 376.9 -3.1C371.5 64 352 128 322.4 189.5C292.7 251 252.9 310 197.4 347.5C142 385 71 401 -2.2 404.7C-75.3 408.5 -150.7 400 -201.6 359.9C-252.6 319.8 -279.1 248.1 -297.1 182.9C-315.1 117.7 -324.6 58.8 -333.5 -5.2C-342.5 -69.2 -350.9 -138.3 -334.6 -206.5C-318.4 -274.7 -277.3 -342 -217.4 -356.6C-157.5 -371.2 -78.8 -333.3 -2.5 -328.9C73.7 -324.5 147.3 -353.6 208.1 -339.5" fill="#2b3033"></path></g></svg>