<svg id="visual" viewBox="0 0 675 900" width="675" height="900" xmlns="http://www.w3.org/2000/svg" xmlns:xlink="http://www.w3.org/1999/xlink" version="1.1"><g stroke-width="1" stroke-linejoin="bevel"><path d="M359 357.7L444 506.3L450 299.1Z" fill="#33383b" stroke="#33383b"></path><path d="M444 506.3L555 349.7L450 299.1Z" fill="#232629" stroke="#232629"></path><path d="M444 506.3L550 500.3L555 349.7Z" fill="#232629" stroke="#232629"></path><path d="M675 278.1L568 288.1L555 349.7Z" fill="#2b2f32" stroke="#2b2f32"></path><path d="M555 349.7L568 288.1L450 299.1Z" fill="#2b2f32" stroke="#2b2f32"></path><path d="M359 357.7L317 551.3L444 506.3Z" fill="#373d40" stroke="#373d40"></path><path d="M444 506.3L556 585.9L550 500.3Z" fill="#3f464a" stroke="#3f464a"></path><path d="M238 260.1L249 400.7L359 357.7Z" fill="#33383b" stroke="#33383b"></path><path d="M359 357.7L249 400.7L317 551.3Z" fill="#232629" stroke="#232629"></path><path d="M390 660.9L556 585.9L444 506.3Z" fill="#232629" stroke="#232629"></path><path d="M550 500.3L675 413.7L555 349.7Z" fill="#33383b" stroke="#33383b"></path><path d="M675 494.3L675 413.7L550 500.3Z" fill="#272b2d" stroke="#272b2d"></path><path d="M675 278.1L508 174.6L568 288.1Z" fill="#1f2225" stroke="#1f2225"></path><path d="M568 288.1L508 174.6L450 299.1Z" fill="#1c1e20" stroke="#1c1e20"></path><path d="M450 299.1L238 260.1L359 357.7Z" fill="#33383b" stroke="#33383b"></path><path d="M556 585.9L675 494.3L550 500.3Z" fill="#373d40" stroke="#373d40"></path><path d="M675 413.7L675 278.1L555 349.7Z" fill="#1c1e20" stroke="#1c1e20"></path><path d="M267 91.6L238 260.1L450 299.1Z" fill="#3f464a" stroke="#3f464a"></path><path d="M317 551.3L390 660.9L444 506.3Z" fill="#181a1c" stroke="#181a1c"></path><path d="M509 0L460 97.6L508 174.6Z" fill="#272b2d" stroke="#272b2d"></path><path d="M508 174.6L460 97.6L450 299.1Z" fill="#232629" stroke="#232629"></path><path d="M489 808.4L675 655.9L556 585.9Z" fill="#373d40" stroke="#373d40"></path><path d="M556 585.9L675 655.9L675 494.3Z" fill="#272b2d" stroke="#272b2d"></path><path d="M133 595.9L232 666.9L317 551.3Z" fill="#1f2225" stroke="#1f2225"></path><path d="M317 551.3L232 666.9L390 660.9Z" fill="#1f2225" stroke="#1f2225"></path><path d="M390 660.9L489 808.4L556 585.9Z" fill="#3f464a" stroke="#3f464a"></path><path d="M126 535.3L317 551.3L249 400.7Z" fill="#2f3337" stroke="#2f3337"></path><path d="M232 666.9L389 745.4L390 660.9Z" fill="#2b2f32" stroke="#2b2f32"></path><path d="M83 402.7L126 535.3L249 400.7Z" fill="#373d40" stroke="#373d40"></path><path d="M460 97.6L267 91.6L450 299.1Z" fill="#373d40" stroke="#373d40"></path><path d="M238 260.1L83 402.7L249 400.7Z" fill="#181a1c" stroke="#181a1c"></path><path d="M103 211.1L83 402.7L238 260.1Z" fill="#232629" stroke="#232629"></path><path d="M0 605.9L133 595.9L126 535.3Z" fill="#33383b" stroke="#33383b"></path><path d="M126 535.3L133 595.9L317 551.3Z" fill="#232629" stroke="#232629"></path><path d="M675 278.1L675 91.6L508 174.6Z" fill="#1c1e20" stroke="#1c1e20"></path><path d="M460 97.6L293 0L267 91.6Z" fill="#3b4145" stroke="#3b4145"></path><path d="M129 137.6L103 211.1L238 260.1Z" fill="#373d40" stroke="#373d40"></path><path d="M509 0L451 0L460 97.6Z" fill="#2b2f32" stroke="#2b2f32"></path><path d="M675 91.6L509 0L508 174.6Z" fill="#272b2d" stroke="#272b2d"></path><path d="M483 900L489 808.4L355 900Z" fill="#1c1e20" stroke="#1c1e20"></path><path d="M389 745.4L489 808.4L390 660.9Z" fill="#272b2d" stroke="#272b2d"></path><path d="M267 91.6L129 137.6L238 260.1Z" fill="#33383b" stroke="#33383b"></path><path d="M162 0L129 137.6L267 91.6Z" fill="#181a1c" stroke="#181a1c"></path><path d="M451 0L293 0L460 97.6Z" fill="#1f2225" stroke="#1f2225"></path><path d="M232 666.9L239 798.4L389 745.4Z" fill="#2f3337" stroke="#2f3337"></path><path d="M141 738.4L239 798.4L232 666.9Z" fill="#1f2225" stroke="#1f2225"></path><path d="M83 402.7L0 535.3L126 535.3Z" fill="#2f3337" stroke="#2f3337"></path><path d="M133 595.9L141 738.4L232 666.9Z" fill="#232629" stroke="#232629"></path><path d="M0 220.1L0 414.7L83 402.7Z" fill="#272b2d" stroke="#272b2d"></path><path d="M0 220.1L83 402.7L103 211.1Z" fill="#232629" stroke="#232629"></path><path d="M0 605.9L141 738.4L133 595.9Z" fill="#33383b" stroke="#33383b"></path><path d="M489 808.4L675 805.4L675 655.9Z" fill="#1f2225" stroke="#1f2225"></path><path d="M675 91.6L675 0L509 0Z" fill="#3b4145" stroke="#3b4145"></path><path d="M0 414.7L0 535.3L83 402.7Z" fill="#1c1e20" stroke="#1c1e20"></path><path d="M0 160.6L103 211.1L129 137.6Z" fill="#2b2f32" stroke="#2b2f32"></path><path d="M0 160.6L0 220.1L103 211.1Z" fill="#2f3337" stroke="#2f3337"></path><path d="M0 535.3L0 605.9L126 535.3Z" fill="#272b2d" stroke="#272b2d"></path><path d="M293 0L162 0L267 91.6Z" fill="#3b4145" stroke="#3b4145"></path><path d="M355 900L489 808.4L389 745.4Z" fill="#33383b" stroke="#33383b"></path><path d="M489 808.4L675 900L675 805.4Z" fill="#272b2d" stroke="#272b2d"></path><path d="M310 900L389 745.4L239 798.4Z" fill="#1c1e20" stroke="#1c1e20"></path><path d="M310 900L355 900L389 745.4Z" fill="#3b4145" stroke="#3b4145"></path><path d="M0 0L0 160.6L129 137.6Z" fill="#2f3337" stroke="#2f3337"></path><path d="M138 900L310 900L239 798.4Z" fill="#272b2d" stroke="#272b2d"></path><path d="M138 900L239 798.4L141 738.4Z" fill="#232629" stroke="#232629"></path><path d="M483 900L675 900L489 808.4Z" fill="#272b2d" stroke="#272b2d"></path><path d="M0 605.9L0 775.4L141 738.4Z" fill="#272b2d" stroke="#272b2d"></path><path d="M0 775.4L138 900L141 738.4Z" fill="#272b2d" stroke="#272b2d"></path><path d="M162 0L0 0L129 137.6Z" fill="#232629" stroke="#232629"></path><path d="M0 775.4L0 900L138 900Z" fill="#232629" stroke="#232629"></path></g></svg>