<svg id="visual" viewBox="0 0 960 540" width="960" height="540" xmlns="http://www.w3.org/2000/svg" xmlns:xlink="http://www.w3.org/1999/xlink" version="1.1"><g stroke-width="1" stroke-linejoin="bevel"><path d="M539 232L377 153L421 388Z" fill="#3b4145" stroke="#3b4145"></path><path d="M377 153L223 177L421 388Z" fill="#373d40" stroke="#373d40"></path><path d="M421 388L607 400L539 232Z" fill="#373d40" stroke="#373d40"></path><path d="M223 177L188 394L421 388Z" fill="#232629" stroke="#232629"></path><path d="M421 388L556 540L607 400Z" fill="#2b2f32" stroke="#2b2f32"></path><path d="M625 0L356 0L377 153Z" fill="#2b2f32" stroke="#2b2f32"></path><path d="M377 153L356 0L223 177Z" fill="#3f464a" stroke="#3f464a"></path><path d="M188 394L349 540L421 388Z" fill="#1c1e20" stroke="#1c1e20"></path><path d="M349 540L556 540L421 388Z" fill="#181a1c" stroke="#181a1c"></path><path d="M539 232L625 0L377 153Z" fill="#2b2f32" stroke="#2b2f32"></path><path d="M742 150L625 0L539 232Z" fill="#1f2225" stroke="#1f2225"></path><path d="M356 0L218 0L223 177Z" fill="#2b2f32" stroke="#2b2f32"></path><path d="M223 177L0 322L188 394Z" fill="#232629" stroke="#232629"></path><path d="M795 325L539 232L607 400Z" fill="#1c1e20" stroke="#1c1e20"></path><path d="M795 325L742 150L539 232Z" fill="#232629" stroke="#232629"></path><path d="M188 394L206 540L349 540Z" fill="#232629" stroke="#232629"></path><path d="M780 540L795 325L607 400Z" fill="#232629" stroke="#232629"></path><path d="M0 162L0 322L223 177Z" fill="#3b4145" stroke="#3b4145"></path><path d="M188 394L0 540L206 540Z" fill="#3f464a" stroke="#3f464a"></path><path d="M218 0L0 162L223 177Z" fill="#3b4145" stroke="#3b4145"></path><path d="M960 176L784 0L742 150Z" fill="#272b2d" stroke="#272b2d"></path><path d="M742 150L784 0L625 0Z" fill="#181a1c" stroke="#181a1c"></path><path d="M556 540L780 540L607 400Z" fill="#2f3337" stroke="#2f3337"></path><path d="M218 0L0 0L0 162Z" fill="#3f464a" stroke="#3f464a"></path><path d="M0 322L0 540L188 394Z" fill="#272b2d" stroke="#272b2d"></path><path d="M960 540L960 327L795 325Z" fill="#2f3337" stroke="#2f3337"></path><path d="M795 325L960 176L742 150Z" fill="#2b2f32" stroke="#2b2f32"></path><path d="M960 327L960 176L795 325Z" fill="#3f464a" stroke="#3f464a"></path><path d="M960 176L960 0L784 0Z" fill="#181a1c" stroke="#181a1c"></path><path d="M780 540L960 540L795 325Z" fill="#232629" stroke="#232629"></path></g></svg>