<svg id="visual" viewBox="0 0 900 600" width="900" height="600" xmlns="http://www.w3.org/2000/svg" xmlns:xlink="http://www.w3.org/1999/xlink" version="1.1"><path d="M0 420L16.7 428.7C33.3 437.3 66.7 454.7 100 457.2C133.3 459.7 166.7 447.3 200 437.3C233.3 427.3 266.7 419.7 300 416.7C333.3 413.7 366.7 415.3 400 424.3C433.3 433.3 466.7 449.7 500 459.7C533.3 469.7 566.7 473.3 600 467.8C633.3 462.3 666.7 447.7 700 446.3C733.3 445 766.7 457 800 457.7C833.3 458.3 866.7 447.7 883.3 442.3L900 437L900 601L883.3 601C866.7 601 833.3 601 800 601C766.7 601 733.3 601 700 601C666.7 601 633.3 601 600 601C566.7 601 533.3 601 500 601C466.7 601 433.3 601 400 601C366.7 601 333.3 601 300 601C266.7 601 233.3 601 200 601C166.7 601 133.3 601 100 601C66.7 601 33.3 601 16.7 601L0 601Z" fill="#423d3c"></path><path d="M0 514L16.7 512.8C33.3 511.7 66.7 509.3 100 499.8C133.3 490.3 166.7 473.7 200 472.2C233.3 470.7 266.7 484.3 300 492C333.3 499.7 366.7 501.3 400 501.7C433.3 502 466.7 501 500 498.2C533.3 495.3 566.7 490.7 600 491.7C633.3 492.7 666.7 499.3 700 501.7C733.3 504 766.7 502 800 497C833.3 492 866.7 484 883.3 480L900 476L900 601L883.3 601C866.7 601 833.3 601 800 601C766.7 601 733.3 601 700 601C666.7 601 633.3 601 600 601C566.7 601 533.3 601 500 601C466.7 601 433.3 601 400 601C366.7 601 333.3 601 300 601C266.7 601 233.3 601 200 601C166.7 601 133.3 601 100 601C66.7 601 33.3 601 16.7 601L0 601Z" fill="#272525"></path><path d="M0 549L16.7 545.8C33.3 542.7 66.7 536.3 100 533.3C133.3 530.3 166.7 530.7 200 533.8C233.3 537 266.7 543 300 546.5C333.3 550 366.7 551 400 545.5C433.3 540 466.7 528 500 526.8C533.3 525.7 566.7 535.3 600 536.2C633.3 537 666.7 529 700 525.7C733.3 522.3 766.7 523.7 800 523.2C833.3 522.7 866.7 520.3 883.3 519.2L900 518L900 601L883.3 601C866.7 601 833.3 601 800 601C766.7 601 733.3 601 700 601C666.7 601 633.3 601 600 601C566.7 601 533.3 601 500 601C466.7 601 433.3 601 400 601C366.7 601 333.3 601 300 601C266.7 601 233.3 601 200 601C166.7 601 133.3 601 100 601C66.7 601 33.3 601 16.7 601L0 601Z" fill="#0d0d0d"></path></svg>